<svg width="219" height="627" viewBox="0 0 219 627" fill="none" xmlns="http://www.w3.org/2000/svg">
<path d="M25.5 339C26.3284 339 27 338.328 27 337.5C27 336.672 26.3284 336 25.5 336C24.6716 336 24 336.672 24 337.5C24 338.328 24.6716 339 25.5 339Z" fill="#999999"/>
<path d="M49.5 339C50.3284 339 51 338.328 51 337.5C51 336.672 50.3284 336 49.5 336C48.6716 336 48 336.672 48 337.5C48 338.328 48.6716 339 49.5 339Z" fill="#999999"/>
<path d="M73.5 339C74.3284 339 75 338.328 75 337.5C75 336.672 74.3284 336 73.5 336C72.6716 336 72 336.672 72 337.5C72 338.328 72.6716 339 73.5 339Z" fill="#999999"/>
<path d="M97.5 339C98.3284 339 99 338.328 99 337.5C99 336.672 98.3284 336 97.5 336C96.6716 336 96 336.672 96 337.5C96 338.328 96.6716 339 97.5 339Z" fill="#999999"/>
<path d="M121.5 339C122.328 339 123 338.328 123 337.5C123 336.672 122.328 336 121.5 336C120.672 336 120 336.672 120 337.5C120 338.328 120.672 339 121.5 339Z" fill="#999999"/>
<path d="M145.5 339C146.328 339 147 338.328 147 337.5C147 336.672 146.328 336 145.5 336C144.672 336 144 336.672 144 337.5C144 338.328 144.672 339 145.5 339Z" fill="#999999"/>
<path d="M169.5 339C170.328 339 171 338.328 171 337.5C171 336.672 170.328 336 169.5 336C168.672 336 168 336.672 168 337.5C168 338.328 168.672 339 169.5 339Z" fill="#999999"/>
<path d="M193.5 339C194.328 339 195 338.328 195 337.5C195 336.672 194.328 336 193.5 336C192.672 336 192 336.672 192 337.5C192 338.328 192.672 339 193.5 339Z" fill="#999999"/>
<path d="M217.5 339C218.328 339 219 338.328 219 337.5C219 336.672 218.328 336 217.5 336C216.672 336 216 336.672 216 337.5C216 338.328 216.672 339 217.5 339Z" fill="#999999"/>
<path d="M1.5 339C2.32843 339 3 338.328 3 337.5C3 336.672 2.32843 336 1.5 336C0.671573 336 0 336.672 0 337.5C0 338.328 0.671573 339 1.5 339Z" fill="#999999"/>
<path d="M25.5 363C26.3284 363 27 362.328 27 361.5C27 360.672 26.3284 360 25.5 360C24.6716 360 24 360.672 24 361.5C24 362.328 24.6716 363 25.5 363Z" fill="#999999"/>
<path d="M49.5 363C50.3284 363 51 362.328 51 361.5C51 360.672 50.3284 360 49.5 360C48.6716 360 48 360.672 48 361.5C48 362.328 48.6716 363 49.5 363Z" fill="#999999"/>
<path d="M73.5 363C74.3284 363 75 362.328 75 361.5C75 360.672 74.3284 360 73.5 360C72.6716 360 72 360.672 72 361.5C72 362.328 72.6716 363 73.5 363Z" fill="#999999"/>
<path d="M97.5 363C98.3284 363 99 362.328 99 361.5C99 360.672 98.3284 360 97.5 360C96.6716 360 96 360.672 96 361.5C96 362.328 96.6716 363 97.5 363Z" fill="#999999"/>
<path d="M121.5 363C122.328 363 123 362.328 123 361.5C123 360.672 122.328 360 121.5 360C120.672 360 120 360.672 120 361.5C120 362.328 120.672 363 121.5 363Z" fill="#999999"/>
<path d="M145.5 363C146.328 363 147 362.328 147 361.5C147 360.672 146.328 360 145.5 360C144.672 360 144 360.672 144 361.5C144 362.328 144.672 363 145.5 363Z" fill="#999999"/>
<path d="M169.5 363C170.328 363 171 362.328 171 361.5C171 360.672 170.328 360 169.5 360C168.672 360 168 360.672 168 361.5C168 362.328 168.672 363 169.5 363Z" fill="#999999"/>
<path d="M193.5 363C194.328 363 195 362.328 195 361.5C195 360.672 194.328 360 193.5 360C192.672 360 192 360.672 192 361.5C192 362.328 192.672 363 193.5 363Z" fill="#999999"/>
<path d="M217.5 363C218.328 363 219 362.328 219 361.5C219 360.672 218.328 360 217.5 360C216.672 360 216 360.672 216 361.5C216 362.328 216.672 363 217.5 363Z" fill="#999999"/>
<path d="M1.5 363C2.32843 363 3 362.328 3 361.5C3 360.672 2.32843 360 1.5 360C0.671573 360 0 360.672 0 361.5C0 362.328 0.671573 363 1.5 363Z" fill="#999999"/>
<path d="M25.5 387C26.3284 387 27 386.328 27 385.5C27 384.672 26.3284 384 25.5 384C24.6716 384 24 384.672 24 385.5C24 386.328 24.6716 387 25.5 387Z" fill="#999999"/>
<path d="M49.5 387C50.3284 387 51 386.328 51 385.5C51 384.672 50.3284 384 49.5 384C48.6716 384 48 384.672 48 385.5C48 386.328 48.6716 387 49.5 387Z" fill="#999999"/>
<path d="M73.5 387C74.3284 387 75 386.328 75 385.5C75 384.672 74.3284 384 73.5 384C72.6716 384 72 384.672 72 385.5C72 386.328 72.6716 387 73.5 387Z" fill="#999999"/>
<path d="M97.5 387C98.3284 387 99 386.328 99 385.5C99 384.672 98.3284 384 97.5 384C96.6716 384 96 384.672 96 385.5C96 386.328 96.6716 387 97.5 387Z" fill="#999999"/>
<path d="M121.5 387C122.328 387 123 386.328 123 385.5C123 384.672 122.328 384 121.5 384C120.672 384 120 384.672 120 385.5C120 386.328 120.672 387 121.5 387Z" fill="#999999"/>
<path d="M145.5 387C146.328 387 147 386.328 147 385.5C147 384.672 146.328 384 145.5 384C144.672 384 144 384.672 144 385.5C144 386.328 144.672 387 145.5 387Z" fill="#999999"/>
<path d="M169.5 387C170.328 387 171 386.328 171 385.5C171 384.672 170.328 384 169.5 384C168.672 384 168 384.672 168 385.5C168 386.328 168.672 387 169.5 387Z" fill="#999999"/>
<path d="M193.5 387C194.328 387 195 386.328 195 385.5C195 384.672 194.328 384 193.5 384C192.672 384 192 384.672 192 385.5C192 386.328 192.672 387 193.5 387Z" fill="#999999"/>
<path d="M217.5 387C218.328 387 219 386.328 219 385.5C219 384.672 218.328 384 217.5 384C216.672 384 216 384.672 216 385.5C216 386.328 216.672 387 217.5 387Z" fill="#999999"/>
<path d="M1.5 387C2.32843 387 3 386.328 3 385.5C3 384.672 2.32843 384 1.5 384C0.671573 384 0 384.672 0 385.5C0 386.328 0.671573 387 1.5 387Z" fill="#999999"/>
<path d="M25.5 411C26.3284 411 27 410.328 27 409.5C27 408.672 26.3284 408 25.5 408C24.6716 408 24 408.672 24 409.5C24 410.328 24.6716 411 25.5 411Z" fill="#999999"/>
<path d="M49.5 411C50.3284 411 51 410.328 51 409.5C51 408.672 50.3284 408 49.5 408C48.6716 408 48 408.672 48 409.5C48 410.328 48.6716 411 49.5 411Z" fill="#999999"/>
<path d="M73.5 411C74.3284 411 75 410.328 75 409.5C75 408.672 74.3284 408 73.5 408C72.6716 408 72 408.672 72 409.5C72 410.328 72.6716 411 73.5 411Z" fill="#999999"/>
<path d="M97.5 411C98.3284 411 99 410.328 99 409.5C99 408.672 98.3284 408 97.5 408C96.6716 408 96 408.672 96 409.5C96 410.328 96.6716 411 97.5 411Z" fill="#999999"/>
<path d="M121.5 411C122.328 411 123 410.328 123 409.5C123 408.672 122.328 408 121.5 408C120.672 408 120 408.672 120 409.5C120 410.328 120.672 411 121.5 411Z" fill="#999999"/>
<path d="M145.5 411C146.328 411 147 410.328 147 409.5C147 408.672 146.328 408 145.5 408C144.672 408 144 408.672 144 409.5C144 410.328 144.672 411 145.5 411Z" fill="#999999"/>
<path d="M169.5 411C170.328 411 171 410.328 171 409.5C171 408.672 170.328 408 169.5 408C168.672 408 168 408.672 168 409.5C168 410.328 168.672 411 169.5 411Z" fill="#999999"/>
<path d="M193.5 411C194.328 411 195 410.328 195 409.5C195 408.672 194.328 408 193.5 408C192.672 408 192 408.672 192 409.5C192 410.328 192.672 411 193.5 411Z" fill="#999999"/>
<path d="M217.5 411C218.328 411 219 410.328 219 409.5C219 408.672 218.328 408 217.5 408C216.672 408 216 408.672 216 409.5C216 410.328 216.672 411 217.5 411Z" fill="#999999"/>
<path d="M1.5 411C2.32843 411 3 410.328 3 409.5C3 408.672 2.32843 408 1.5 408C0.671573 408 0 408.672 0 409.5C0 410.328 0.671573 411 1.5 411Z" fill="#999999"/>
<path d="M25.5 435C26.3284 435 27 434.328 27 433.5C27 432.672 26.3284 432 25.5 432C24.6716 432 24 432.672 24 433.5C24 434.328 24.6716 435 25.5 435Z" fill="#999999"/>
<path d="M49.5 435C50.3284 435 51 434.328 51 433.5C51 432.672 50.3284 432 49.5 432C48.6716 432 48 432.672 48 433.5C48 434.328 48.6716 435 49.5 435Z" fill="#999999"/>
<path d="M73.5 435C74.3284 435 75 434.328 75 433.5C75 432.672 74.3284 432 73.5 432C72.6716 432 72 432.672 72 433.5C72 434.328 72.6716 435 73.5 435Z" fill="#999999"/>
<path d="M97.5 435C98.3284 435 99 434.328 99 433.5C99 432.672 98.3284 432 97.5 432C96.6716 432 96 432.672 96 433.5C96 434.328 96.6716 435 97.5 435Z" fill="#999999"/>
<path d="M121.5 435C122.328 435 123 434.328 123 433.5C123 432.672 122.328 432 121.5 432C120.672 432 120 432.672 120 433.5C120 434.328 120.672 435 121.5 435Z" fill="#999999"/>
<path d="M145.5 435C146.328 435 147 434.328 147 433.5C147 432.672 146.328 432 145.5 432C144.672 432 144 432.672 144 433.5C144 434.328 144.672 435 145.5 435Z" fill="#999999"/>
<path d="M169.5 435C170.328 435 171 434.328 171 433.5C171 432.672 170.328 432 169.5 432C168.672 432 168 432.672 168 433.5C168 434.328 168.672 435 169.5 435Z" fill="#999999"/>
<path d="M193.5 435C194.328 435 195 434.328 195 433.5C195 432.672 194.328 432 193.5 432C192.672 432 192 432.672 192 433.5C192 434.328 192.672 435 193.5 435Z" fill="#999999"/>
<path d="M217.5 435C218.328 435 219 434.328 219 433.5C219 432.672 218.328 432 217.5 432C216.672 432 216 432.672 216 433.5C216 434.328 216.672 435 217.5 435Z" fill="#999999"/>
<path d="M1.5 435C2.32843 435 3 434.328 3 433.5C3 432.672 2.32843 432 1.5 432C0.671573 432 0 432.672 0 433.5C0 434.328 0.671573 435 1.5 435Z" fill="#999999"/>
<path d="M25.5 459C26.3284 459 27 458.328 27 457.5C27 456.672 26.3284 456 25.5 456C24.6716 456 24 456.672 24 457.5C24 458.328 24.6716 459 25.5 459Z" fill="#999999"/>
<path d="M49.5 459C50.3284 459 51 458.328 51 457.5C51 456.672 50.3284 456 49.5 456C48.6716 456 48 456.672 48 457.5C48 458.328 48.6716 459 49.5 459Z" fill="#999999"/>
<path d="M73.5 459C74.3284 459 75 458.328 75 457.5C75 456.672 74.3284 456 73.5 456C72.6716 456 72 456.672 72 457.5C72 458.328 72.6716 459 73.5 459Z" fill="#999999"/>
<path d="M97.5 459C98.3284 459 99 458.328 99 457.5C99 456.672 98.3284 456 97.5 456C96.6716 456 96 456.672 96 457.5C96 458.328 96.6716 459 97.5 459Z" fill="#999999"/>
<path d="M121.5 459C122.328 459 123 458.328 123 457.5C123 456.672 122.328 456 121.5 456C120.672 456 120 456.672 120 457.5C120 458.328 120.672 459 121.5 459Z" fill="#999999"/>
<path d="M145.5 459C146.328 459 147 458.328 147 457.5C147 456.672 146.328 456 145.5 456C144.672 456 144 456.672 144 457.5C144 458.328 144.672 459 145.5 459Z" fill="#999999"/>
<path d="M169.5 459C170.328 459 171 458.328 171 457.5C171 456.672 170.328 456 169.5 456C168.672 456 168 456.672 168 457.5C168 458.328 168.672 459 169.5 459Z" fill="#999999"/>
<path d="M193.5 459C194.328 459 195 458.328 195 457.5C195 456.672 194.328 456 193.5 456C192.672 456 192 456.672 192 457.5C192 458.328 192.672 459 193.5 459Z" fill="#999999"/>
<path d="M217.5 459C218.328 459 219 458.328 219 457.5C219 456.672 218.328 456 217.5 456C216.672 456 216 456.672 216 457.5C216 458.328 216.672 459 217.5 459Z" fill="#999999"/>
<path d="M1.5 459C2.32843 459 3 458.328 3 457.5C3 456.672 2.32843 456 1.5 456C0.671573 456 0 456.672 0 457.5C0 458.328 0.671573 459 1.5 459Z" fill="#999999"/>
<path d="M25.5 483C26.3284 483 27 482.328 27 481.5C27 480.672 26.3284 480 25.5 480C24.6716 480 24 480.672 24 481.5C24 482.328 24.6716 483 25.5 483Z" fill="#999999"/>
<path d="M49.5 483C50.3284 483 51 482.328 51 481.5C51 480.672 50.3284 480 49.5 480C48.6716 480 48 480.672 48 481.5C48 482.328 48.6716 483 49.5 483Z" fill="#999999"/>
<path d="M73.5 483C74.3284 483 75 482.328 75 481.5C75 480.672 74.3284 480 73.5 480C72.6716 480 72 480.672 72 481.5C72 482.328 72.6716 483 73.5 483Z" fill="#999999"/>
<path d="M97.5 483C98.3284 483 99 482.328 99 481.5C99 480.672 98.3284 480 97.5 480C96.6716 480 96 480.672 96 481.5C96 482.328 96.6716 483 97.5 483Z" fill="#999999"/>
<path d="M121.5 483C122.328 483 123 482.328 123 481.5C123 480.672 122.328 480 121.5 480C120.672 480 120 480.672 120 481.5C120 482.328 120.672 483 121.5 483Z" fill="#999999"/>
<path d="M145.5 483C146.328 483 147 482.328 147 481.5C147 480.672 146.328 480 145.5 480C144.672 480 144 480.672 144 481.5C144 482.328 144.672 483 145.5 483Z" fill="#999999"/>
<path d="M169.5 483C170.328 483 171 482.328 171 481.5C171 480.672 170.328 480 169.5 480C168.672 480 168 480.672 168 481.5C168 482.328 168.672 483 169.5 483Z" fill="#999999"/>
<path d="M193.5 483C194.328 483 195 482.328 195 481.5C195 480.672 194.328 480 193.5 480C192.672 480 192 480.672 192 481.5C192 482.328 192.672 483 193.5 483Z" fill="#999999"/>
<path d="M217.5 483C218.328 483 219 482.328 219 481.5C219 480.672 218.328 480 217.5 480C216.672 480 216 480.672 216 481.5C216 482.328 216.672 483 217.5 483Z" fill="#999999"/>
<path d="M1.5 483C2.32843 483 3 482.328 3 481.5C3 480.672 2.32843 480 1.5 480C0.671573 480 0 480.672 0 481.5C0 482.328 0.671573 483 1.5 483Z" fill="#999999"/>
<path d="M25.5 507C26.3284 507 27 506.328 27 505.5C27 504.672 26.3284 504 25.5 504C24.6716 504 24 504.672 24 505.5C24 506.328 24.6716 507 25.5 507Z" fill="#999999"/>
<path d="M49.5 507C50.3284 507 51 506.328 51 505.5C51 504.672 50.3284 504 49.5 504C48.6716 504 48 504.672 48 505.5C48 506.328 48.6716 507 49.5 507Z" fill="#999999"/>
<path d="M73.5 507C74.3284 507 75 506.328 75 505.5C75 504.672 74.3284 504 73.5 504C72.6716 504 72 504.672 72 505.5C72 506.328 72.6716 507 73.5 507Z" fill="#999999"/>
<path d="M97.5 507C98.3284 507 99 506.328 99 505.5C99 504.672 98.3284 504 97.5 504C96.6716 504 96 504.672 96 505.5C96 506.328 96.6716 507 97.5 507Z" fill="#999999"/>
<path d="M121.5 507C122.328 507 123 506.328 123 505.5C123 504.672 122.328 504 121.5 504C120.672 504 120 504.672 120 505.5C120 506.328 120.672 507 121.5 507Z" fill="#999999"/>
<path d="M145.5 507C146.328 507 147 506.328 147 505.5C147 504.672 146.328 504 145.5 504C144.672 504 144 504.672 144 505.5C144 506.328 144.672 507 145.5 507Z" fill="#999999"/>
<path d="M169.5 507C170.328 507 171 506.328 171 505.5C171 504.672 170.328 504 169.5 504C168.672 504 168 504.672 168 505.5C168 506.328 168.672 507 169.5 507Z" fill="#999999"/>
<path d="M193.5 507C194.328 507 195 506.328 195 505.5C195 504.672 194.328 504 193.5 504C192.672 504 192 504.672 192 505.5C192 506.328 192.672 507 193.5 507Z" fill="#999999"/>
<path d="M217.5 507C218.328 507 219 506.328 219 505.5C219 504.672 218.328 504 217.5 504C216.672 504 216 504.672 216 505.5C216 506.328 216.672 507 217.5 507Z" fill="#999999"/>
<path d="M1.5 507C2.32843 507 3 506.328 3 505.5C3 504.672 2.32843 504 1.5 504C0.671573 504 0 504.672 0 505.5C0 506.328 0.671573 507 1.5 507Z" fill="#999999"/>
<path d="M25.5 531C26.3284 531 27 530.328 27 529.5C27 528.672 26.3284 528 25.5 528C24.6716 528 24 528.672 24 529.5C24 530.328 24.6716 531 25.5 531Z" fill="#999999"/>
<path d="M49.5 531C50.3284 531 51 530.328 51 529.5C51 528.672 50.3284 528 49.5 528C48.6716 528 48 528.672 48 529.5C48 530.328 48.6716 531 49.5 531Z" fill="#999999"/>
<path d="M73.5 531C74.3284 531 75 530.328 75 529.5C75 528.672 74.3284 528 73.5 528C72.6716 528 72 528.672 72 529.5C72 530.328 72.6716 531 73.5 531Z" fill="#999999"/>
<path d="M97.5 531C98.3284 531 99 530.328 99 529.5C99 528.672 98.3284 528 97.5 528C96.6716 528 96 528.672 96 529.5C96 530.328 96.6716 531 97.5 531Z" fill="#999999"/>
<path d="M121.5 531C122.328 531 123 530.328 123 529.5C123 528.672 122.328 528 121.5 528C120.672 528 120 528.672 120 529.5C120 530.328 120.672 531 121.5 531Z" fill="#999999"/>
<path d="M145.5 531C146.328 531 147 530.328 147 529.5C147 528.672 146.328 528 145.5 528C144.672 528 144 528.672 144 529.5C144 530.328 144.672 531 145.5 531Z" fill="#999999"/>
<path d="M169.5 531C170.328 531 171 530.328 171 529.5C171 528.672 170.328 528 169.5 528C168.672 528 168 528.672 168 529.5C168 530.328 168.672 531 169.5 531Z" fill="#999999"/>
<path d="M193.5 531C194.328 531 195 530.328 195 529.5C195 528.672 194.328 528 193.5 528C192.672 528 192 528.672 192 529.5C192 530.328 192.672 531 193.5 531Z" fill="#999999"/>
<path d="M217.5 531C218.328 531 219 530.328 219 529.5C219 528.672 218.328 528 217.5 528C216.672 528 216 528.672 216 529.5C216 530.328 216.672 531 217.5 531Z" fill="#999999"/>
<path d="M1.5 531C2.32843 531 3 530.328 3 529.5C3 528.672 2.32843 528 1.5 528C0.671573 528 0 528.672 0 529.5C0 530.328 0.671573 531 1.5 531Z" fill="#999999"/>
<path d="M25.5 555C26.3284 555 27 554.328 27 553.5C27 552.672 26.3284 552 25.5 552C24.6716 552 24 552.672 24 553.5C24 554.328 24.6716 555 25.5 555Z" fill="#999999"/>
<path d="M49.5 555C50.3284 555 51 554.328 51 553.5C51 552.672 50.3284 552 49.5 552C48.6716 552 48 552.672 48 553.5C48 554.328 48.6716 555 49.5 555Z" fill="#999999"/>
<path d="M73.5 555C74.3284 555 75 554.328 75 553.5C75 552.672 74.3284 552 73.5 552C72.6716 552 72 552.672 72 553.5C72 554.328 72.6716 555 73.5 555Z" fill="#999999"/>
<path d="M97.5 555C98.3284 555 99 554.328 99 553.5C99 552.672 98.3284 552 97.5 552C96.6716 552 96 552.672 96 553.5C96 554.328 96.6716 555 97.5 555Z" fill="#999999"/>
<path d="M121.5 555C122.328 555 123 554.328 123 553.5C123 552.672 122.328 552 121.5 552C120.672 552 120 552.672 120 553.5C120 554.328 120.672 555 121.5 555Z" fill="#999999"/>
<path d="M145.5 555C146.328 555 147 554.328 147 553.5C147 552.672 146.328 552 145.5 552C144.672 552 144 552.672 144 553.5C144 554.328 144.672 555 145.5 555Z" fill="#999999"/>
<path d="M169.5 555C170.328 555 171 554.328 171 553.5C171 552.672 170.328 552 169.5 552C168.672 552 168 552.672 168 553.5C168 554.328 168.672 555 169.5 555Z" fill="#999999"/>
<path d="M193.5 555C194.328 555 195 554.328 195 553.5C195 552.672 194.328 552 193.5 552C192.672 552 192 552.672 192 553.5C192 554.328 192.672 555 193.5 555Z" fill="#999999"/>
<path d="M217.5 555C218.328 555 219 554.328 219 553.5C219 552.672 218.328 552 217.5 552C216.672 552 216 552.672 216 553.5C216 554.328 216.672 555 217.5 555Z" fill="#999999"/>
<path d="M1.5 555C2.32843 555 3 554.328 3 553.5C3 552.672 2.32843 552 1.5 552C0.671573 552 0 552.672 0 553.5C0 554.328 0.671573 555 1.5 555Z" fill="#999999"/>
<path d="M25.5 579C26.3284 579 27 578.328 27 577.5C27 576.672 26.3284 576 25.5 576C24.6716 576 24 576.672 24 577.5C24 578.328 24.6716 579 25.5 579Z" fill="#999999"/>
<path d="M49.5 579C50.3284 579 51 578.328 51 577.5C51 576.672 50.3284 576 49.5 576C48.6716 576 48 576.672 48 577.5C48 578.328 48.6716 579 49.5 579Z" fill="#999999"/>
<path d="M73.5 579C74.3284 579 75 578.328 75 577.5C75 576.672 74.3284 576 73.5 576C72.6716 576 72 576.672 72 577.5C72 578.328 72.6716 579 73.5 579Z" fill="#999999"/>
<path d="M97.5 579C98.3284 579 99 578.328 99 577.5C99 576.672 98.3284 576 97.5 576C96.6716 576 96 576.672 96 577.5C96 578.328 96.6716 579 97.5 579Z" fill="#999999"/>
<path d="M121.5 579C122.328 579 123 578.328 123 577.5C123 576.672 122.328 576 121.5 576C120.672 576 120 576.672 120 577.5C120 578.328 120.672 579 121.5 579Z" fill="#999999"/>
<path d="M145.5 579C146.328 579 147 578.328 147 577.5C147 576.672 146.328 576 145.5 576C144.672 576 144 576.672 144 577.5C144 578.328 144.672 579 145.5 579Z" fill="#999999"/>
<path d="M169.5 579C170.328 579 171 578.328 171 577.5C171 576.672 170.328 576 169.5 576C168.672 576 168 576.672 168 577.5C168 578.328 168.672 579 169.5 579Z" fill="#999999"/>
<path d="M193.5 579C194.328 579 195 578.328 195 577.5C195 576.672 194.328 576 193.5 576C192.672 576 192 576.672 192 577.5C192 578.328 192.672 579 193.5 579Z" fill="#999999"/>
<path d="M217.5 579C218.328 579 219 578.328 219 577.5C219 576.672 218.328 576 217.5 576C216.672 576 216 576.672 216 577.5C216 578.328 216.672 579 217.5 579Z" fill="#999999"/>
<path d="M1.5 579C2.32843 579 3 578.328 3 577.5C3 576.672 2.32843 576 1.5 576C0.671573 576 0 576.672 0 577.5C0 578.328 0.671573 579 1.5 579Z" fill="#999999"/>
<path d="M25.5 603C26.3284 603 27 602.328 27 601.5C27 600.672 26.3284 600 25.5 600C24.6716 600 24 600.672 24 601.5C24 602.328 24.6716 603 25.5 603Z" fill="#999999"/>
<path d="M49.5 603C50.3284 603 51 602.328 51 601.5C51 600.672 50.3284 600 49.5 600C48.6716 600 48 600.672 48 601.5C48 602.328 48.6716 603 49.5 603Z" fill="#999999"/>
<path d="M73.5 603C74.3284 603 75 602.328 75 601.5C75 600.672 74.3284 600 73.5 600C72.6716 600 72 600.672 72 601.5C72 602.328 72.6716 603 73.5 603Z" fill="#999999"/>
<path d="M97.5 603C98.3284 603 99 602.328 99 601.5C99 600.672 98.3284 600 97.5 600C96.6716 600 96 600.672 96 601.5C96 602.328 96.6716 603 97.5 603Z" fill="#999999"/>
<path d="M121.5 603C122.328 603 123 602.328 123 601.5C123 600.672 122.328 600 121.5 600C120.672 600 120 600.672 120 601.5C120 602.328 120.672 603 121.5 603Z" fill="#999999"/>
<path d="M145.5 603C146.328 603 147 602.328 147 601.5C147 600.672 146.328 600 145.5 600C144.672 600 144 600.672 144 601.5C144 602.328 144.672 603 145.5 603Z" fill="#999999"/>
<path d="M169.5 603C170.328 603 171 602.328 171 601.5C171 600.672 170.328 600 169.5 600C168.672 600 168 600.672 168 601.5C168 602.328 168.672 603 169.5 603Z" fill="#999999"/>
<path d="M193.5 603C194.328 603 195 602.328 195 601.5C195 600.672 194.328 600 193.5 600C192.672 600 192 600.672 192 601.5C192 602.328 192.672 603 193.5 603Z" fill="#999999"/>
<path d="M217.5 603C218.328 603 219 602.328 219 601.5C219 600.672 218.328 600 217.5 600C216.672 600 216 600.672 216 601.5C216 602.328 216.672 603 217.5 603Z" fill="#999999"/>
<path d="M1.5 603C2.32843 603 3 602.328 3 601.5C3 600.672 2.32843 600 1.5 600C0.671573 600 0 600.672 0 601.5C0 602.328 0.671573 603 1.5 603Z" fill="#999999"/>
<path d="M25.5 627C26.3284 627 27 626.328 27 625.5C27 624.672 26.3284 624 25.5 624C24.6716 624 24 624.672 24 625.5C24 626.328 24.6716 627 25.5 627Z" fill="#999999"/>
<path d="M49.5 627C50.3284 627 51 626.328 51 625.5C51 624.672 50.3284 624 49.5 624C48.6716 624 48 624.672 48 625.5C48 626.328 48.6716 627 49.5 627Z" fill="#999999"/>
<path d="M73.5 627C74.3284 627 75 626.328 75 625.5C75 624.672 74.3284 624 73.5 624C72.6716 624 72 624.672 72 625.5C72 626.328 72.6716 627 73.5 627Z" fill="#999999"/>
<path d="M97.5 627C98.3284 627 99 626.328 99 625.5C99 624.672 98.3284 624 97.5 624C96.6716 624 96 624.672 96 625.5C96 626.328 96.6716 627 97.5 627Z" fill="#999999"/>
<path d="M121.5 627C122.328 627 123 626.328 123 625.5C123 624.672 122.328 624 121.5 624C120.672 624 120 624.672 120 625.5C120 626.328 120.672 627 121.5 627Z" fill="#999999"/>
<path d="M145.5 627C146.328 627 147 626.328 147 625.5C147 624.672 146.328 624 145.5 624C144.672 624 144 624.672 144 625.5C144 626.328 144.672 627 145.5 627Z" fill="#999999"/>
<path d="M169.5 627C170.328 627 171 626.328 171 625.5C171 624.672 170.328 624 169.5 624C168.672 624 168 624.672 168 625.5C168 626.328 168.672 627 169.5 627Z" fill="#999999"/>
<path d="M193.5 627C194.328 627 195 626.328 195 625.5C195 624.672 194.328 624 193.5 624C192.672 624 192 624.672 192 625.5C192 626.328 192.672 627 193.5 627Z" fill="#999999"/>
<path d="M217.5 627C218.328 627 219 626.328 219 625.5C219 624.672 218.328 624 217.5 624C216.672 624 216 624.672 216 625.5C216 626.328 216.672 627 217.5 627Z" fill="#999999"/>
<path d="M1.5 627C2.32843 627 3 626.328 3 625.5C3 624.672 2.32843 624 1.5 624C0.671573 624 0 624.672 0 625.5C0 626.328 0.671573 627 1.5 627Z" fill="#999999"/>
<path d="M25.5 27C26.3284 27 27 26.3284 27 25.5C27 24.6716 26.3284 24 25.5 24C24.6716 24 24 24.6716 24 25.5C24 26.3284 24.6716 27 25.5 27Z" fill="#999999"/>
<path d="M25.5 3C26.3284 3 27 2.32843 27 1.5C27 0.671573 26.3284 0 25.5 0C24.6716 0 24 0.671573 24 1.5C24 2.32843 24.6716 3 25.5 3Z" fill="#999999"/>
<path d="M49.5 27C50.3284 27 51 26.3284 51 25.5C51 24.6716 50.3284 24 49.5 24C48.6716 24 48 24.6716 48 25.5C48 26.3284 48.6716 27 49.5 27Z" fill="#999999"/>
<path d="M49.5 3C50.3284 3 51 2.32843 51 1.5C51 0.671573 50.3284 0 49.5 0C48.6716 0 48 0.671573 48 1.5C48 2.32843 48.6716 3 49.5 3Z" fill="#999999"/>
<path d="M73.5 27C74.3284 27 75 26.3284 75 25.5C75 24.6716 74.3284 24 73.5 24C72.6716 24 72 24.6716 72 25.5C72 26.3284 72.6716 27 73.5 27Z" fill="#999999"/>
<path d="M73.5 3C74.3284 3 75 2.32843 75 1.5C75 0.671573 74.3284 0 73.5 0C72.6716 0 72 0.671573 72 1.5C72 2.32843 72.6716 3 73.5 3Z" fill="#999999"/>
<path d="M97.5 27C98.3284 27 99 26.3284 99 25.5C99 24.6716 98.3284 24 97.5 24C96.6716 24 96 24.6716 96 25.5C96 26.3284 96.6716 27 97.5 27Z" fill="#999999"/>
<path d="M97.5 3C98.3284 3 99 2.32843 99 1.5C99 0.671573 98.3284 0 97.5 0C96.6716 0 96 0.671573 96 1.5C96 2.32843 96.6716 3 97.5 3Z" fill="#999999"/>
<path d="M121.5 27C122.328 27 123 26.3284 123 25.5C123 24.6716 122.328 24 121.5 24C120.672 24 120 24.6716 120 25.5C120 26.3284 120.672 27 121.5 27Z" fill="#999999"/>
<path d="M121.5 3C122.328 3 123 2.32843 123 1.5C123 0.671573 122.328 0 121.5 0C120.672 0 120 0.671573 120 1.5C120 2.32843 120.672 3 121.5 3Z" fill="#999999"/>
<path d="M145.5 27C146.328 27 147 26.3284 147 25.5C147 24.6716 146.328 24 145.5 24C144.672 24 144 24.6716 144 25.5C144 26.3284 144.672 27 145.5 27Z" fill="#999999"/>
<path d="M145.5 3C146.328 3 147 2.32843 147 1.5C147 0.671573 146.328 0 145.5 0C144.672 0 144 0.671573 144 1.5C144 2.32843 144.672 3 145.5 3Z" fill="#999999"/>
<path d="M169.5 27C170.328 27 171 26.3284 171 25.5C171 24.6716 170.328 24 169.5 24C168.672 24 168 24.6716 168 25.5C168 26.3284 168.672 27 169.5 27Z" fill="#999999"/>
<path d="M169.5 3C170.328 3 171 2.32843 171 1.5C171 0.671573 170.328 0 169.5 0C168.672 0 168 0.671573 168 1.5C168 2.32843 168.672 3 169.5 3Z" fill="#999999"/>
<path d="M193.5 27C194.328 27 195 26.3284 195 25.5C195 24.6716 194.328 24 193.5 24C192.672 24 192 24.6716 192 25.5C192 26.3284 192.672 27 193.5 27Z" fill="#999999"/>
<path d="M193.5 3C194.328 3 195 2.32843 195 1.5C195 0.671573 194.328 0 193.5 0C192.672 0 192 0.671573 192 1.5C192 2.32843 192.672 3 193.5 3Z" fill="#999999"/>
<path d="M217.5 27C218.328 27 219 26.3284 219 25.5C219 24.6716 218.328 24 217.5 24C216.672 24 216 24.6716 216 25.5C216 26.3284 216.672 27 217.5 27Z" fill="#999999"/>
<path d="M1.5 27C2.32843 27 3 26.3284 3 25.5C3 24.6716 2.32843 24 1.5 24C0.671573 24 0 24.6716 0 25.5C0 26.3284 0.671573 27 1.5 27Z" fill="#999999"/>
<path d="M217.5 3C218.328 3 219 2.32843 219 1.5C219 0.671573 218.328 0 217.5 0C216.672 0 216 0.671573 216 1.5C216 2.32843 216.672 3 217.5 3Z" fill="#999999"/>
<path d="M1.5 3C2.32843 3 3 2.32843 3 1.5C3 0.671573 2.32843 0 1.5 0C0.671573 0 0 0.671573 0 1.5C0 2.32843 0.671573 3 1.5 3Z" fill="#999999"/>
<path d="M25.5 51C26.3284 51 27 50.3284 27 49.5C27 48.6716 26.3284 48 25.5 48C24.6716 48 24 48.6716 24 49.5C24 50.3284 24.6716 51 25.5 51Z" fill="#999999"/>
<path d="M49.5 51C50.3284 51 51 50.3284 51 49.5C51 48.6716 50.3284 48 49.5 48C48.6716 48 48 48.6716 48 49.5C48 50.3284 48.6716 51 49.5 51Z" fill="#999999"/>
<path d="M73.5 51C74.3284 51 75 50.3284 75 49.5C75 48.6716 74.3284 48 73.5 48C72.6716 48 72 48.6716 72 49.5C72 50.3284 72.6716 51 73.5 51Z" fill="#999999"/>
<path d="M97.5 51C98.3284 51 99 50.3284 99 49.5C99 48.6716 98.3284 48 97.5 48C96.6716 48 96 48.6716 96 49.5C96 50.3284 96.6716 51 97.5 51Z" fill="#999999"/>
<path d="M121.5 51C122.328 51 123 50.3284 123 49.5C123 48.6716 122.328 48 121.5 48C120.672 48 120 48.6716 120 49.5C120 50.3284 120.672 51 121.5 51Z" fill="#999999"/>
<path d="M145.5 51C146.328 51 147 50.3284 147 49.5C147 48.6716 146.328 48 145.5 48C144.672 48 144 48.6716 144 49.5C144 50.3284 144.672 51 145.5 51Z" fill="#999999"/>
<path d="M169.5 51C170.328 51 171 50.3284 171 49.5C171 48.6716 170.328 48 169.5 48C168.672 48 168 48.6716 168 49.5C168 50.3284 168.672 51 169.5 51Z" fill="#999999"/>
<path d="M193.5 51C194.328 51 195 50.3284 195 49.5C195 48.6716 194.328 48 193.5 48C192.672 48 192 48.6716 192 49.5C192 50.3284 192.672 51 193.5 51Z" fill="#999999"/>
<path d="M217.5 51C218.328 51 219 50.3284 219 49.5C219 48.6716 218.328 48 217.5 48C216.672 48 216 48.6716 216 49.5C216 50.3284 216.672 51 217.5 51Z" fill="#999999"/>
<path d="M1.5 51C2.32843 51 3 50.3284 3 49.5C3 48.6716 2.32843 48 1.5 48C0.671573 48 0 48.6716 0 49.5C0 50.3284 0.671573 51 1.5 51Z" fill="#999999"/>
<path d="M25.5 75C26.3284 75 27 74.3284 27 73.5C27 72.6716 26.3284 72 25.5 72C24.6716 72 24 72.6716 24 73.5C24 74.3284 24.6716 75 25.5 75Z" fill="#999999"/>
<path d="M49.5 75C50.3284 75 51 74.3284 51 73.5C51 72.6716 50.3284 72 49.5 72C48.6716 72 48 72.6716 48 73.5C48 74.3284 48.6716 75 49.5 75Z" fill="#999999"/>
<path d="M73.5 75C74.3284 75 75 74.3284 75 73.5C75 72.6716 74.3284 72 73.5 72C72.6716 72 72 72.6716 72 73.5C72 74.3284 72.6716 75 73.5 75Z" fill="#999999"/>
<path d="M97.5 75C98.3284 75 99 74.3284 99 73.5C99 72.6716 98.3284 72 97.5 72C96.6716 72 96 72.6716 96 73.5C96 74.3284 96.6716 75 97.5 75Z" fill="#999999"/>
<path d="M121.5 75C122.328 75 123 74.3284 123 73.5C123 72.6716 122.328 72 121.5 72C120.672 72 120 72.6716 120 73.5C120 74.3284 120.672 75 121.5 75Z" fill="#999999"/>
<path d="M145.5 75C146.328 75 147 74.3284 147 73.5C147 72.6716 146.328 72 145.5 72C144.672 72 144 72.6716 144 73.5C144 74.3284 144.672 75 145.5 75Z" fill="#999999"/>
<path d="M169.5 75C170.328 75 171 74.3284 171 73.5C171 72.6716 170.328 72 169.5 72C168.672 72 168 72.6716 168 73.5C168 74.3284 168.672 75 169.5 75Z" fill="#999999"/>
<path d="M193.5 75C194.328 75 195 74.3284 195 73.5C195 72.6716 194.328 72 193.5 72C192.672 72 192 72.6716 192 73.5C192 74.3284 192.672 75 193.5 75Z" fill="#999999"/>
<path d="M217.5 75C218.328 75 219 74.3284 219 73.5C219 72.6716 218.328 72 217.5 72C216.672 72 216 72.6716 216 73.5C216 74.3284 216.672 75 217.5 75Z" fill="#999999"/>
<path d="M1.5 75C2.32843 75 3 74.3284 3 73.5C3 72.6716 2.32843 72 1.5 72C0.671573 72 0 72.6716 0 73.5C0 74.3284 0.671573 75 1.5 75Z" fill="#999999"/>
<path d="M25.5 99C26.3284 99 27 98.3284 27 97.5C27 96.6716 26.3284 96 25.5 96C24.6716 96 24 96.6716 24 97.5C24 98.3284 24.6716 99 25.5 99Z" fill="#999999"/>
<path d="M49.5 99C50.3284 99 51 98.3284 51 97.5C51 96.6716 50.3284 96 49.5 96C48.6716 96 48 96.6716 48 97.5C48 98.3284 48.6716 99 49.5 99Z" fill="#999999"/>
<path d="M73.5 99C74.3284 99 75 98.3284 75 97.5C75 96.6716 74.3284 96 73.5 96C72.6716 96 72 96.6716 72 97.5C72 98.3284 72.6716 99 73.5 99Z" fill="#999999"/>
<path d="M97.5 99C98.3284 99 99 98.3284 99 97.5C99 96.6716 98.3284 96 97.5 96C96.6716 96 96 96.6716 96 97.5C96 98.3284 96.6716 99 97.5 99Z" fill="#999999"/>
<path d="M121.5 99C122.328 99 123 98.3284 123 97.5C123 96.6716 122.328 96 121.5 96C120.672 96 120 96.6716 120 97.5C120 98.3284 120.672 99 121.5 99Z" fill="#999999"/>
<path d="M145.5 99C146.328 99 147 98.3284 147 97.5C147 96.6716 146.328 96 145.5 96C144.672 96 144 96.6716 144 97.5C144 98.3284 144.672 99 145.5 99Z" fill="#999999"/>
<path d="M169.5 99C170.328 99 171 98.3284 171 97.5C171 96.6716 170.328 96 169.5 96C168.672 96 168 96.6716 168 97.5C168 98.3284 168.672 99 169.5 99Z" fill="#999999"/>
<path d="M193.5 99C194.328 99 195 98.3284 195 97.5C195 96.6716 194.328 96 193.5 96C192.672 96 192 96.6716 192 97.5C192 98.3284 192.672 99 193.5 99Z" fill="#999999"/>
<path d="M217.5 99C218.328 99 219 98.3284 219 97.5C219 96.6716 218.328 96 217.5 96C216.672 96 216 96.6716 216 97.5C216 98.3284 216.672 99 217.5 99Z" fill="#999999"/>
<path d="M1.5 99C2.32843 99 3 98.3284 3 97.5C3 96.6716 2.32843 96 1.5 96C0.671573 96 0 96.6716 0 97.5C0 98.3284 0.671573 99 1.5 99Z" fill="#999999"/>
<path d="M25.5 123C26.3284 123 27 122.328 27 121.5C27 120.672 26.3284 120 25.5 120C24.6716 120 24 120.672 24 121.5C24 122.328 24.6716 123 25.5 123Z" fill="#999999"/>
<path d="M49.5 123C50.3284 123 51 122.328 51 121.5C51 120.672 50.3284 120 49.5 120C48.6716 120 48 120.672 48 121.5C48 122.328 48.6716 123 49.5 123Z" fill="#999999"/>
<path d="M73.5 123C74.3284 123 75 122.328 75 121.5C75 120.672 74.3284 120 73.5 120C72.6716 120 72 120.672 72 121.5C72 122.328 72.6716 123 73.5 123Z" fill="#999999"/>
<path d="M97.5 123C98.3284 123 99 122.328 99 121.5C99 120.672 98.3284 120 97.5 120C96.6716 120 96 120.672 96 121.5C96 122.328 96.6716 123 97.5 123Z" fill="#999999"/>
<path d="M121.5 123C122.328 123 123 122.328 123 121.5C123 120.672 122.328 120 121.5 120C120.672 120 120 120.672 120 121.5C120 122.328 120.672 123 121.5 123Z" fill="#999999"/>
<path d="M145.5 123C146.328 123 147 122.328 147 121.5C147 120.672 146.328 120 145.5 120C144.672 120 144 120.672 144 121.5C144 122.328 144.672 123 145.5 123Z" fill="#999999"/>
<path d="M169.5 123C170.328 123 171 122.328 171 121.5C171 120.672 170.328 120 169.5 120C168.672 120 168 120.672 168 121.5C168 122.328 168.672 123 169.5 123Z" fill="#999999"/>
<path d="M193.5 123C194.328 123 195 122.328 195 121.5C195 120.672 194.328 120 193.5 120C192.672 120 192 120.672 192 121.5C192 122.328 192.672 123 193.5 123Z" fill="#999999"/>
<path d="M217.5 123C218.328 123 219 122.328 219 121.5C219 120.672 218.328 120 217.5 120C216.672 120 216 120.672 216 121.5C216 122.328 216.672 123 217.5 123Z" fill="#999999"/>
<path d="M1.5 123C2.32843 123 3 122.328 3 121.5C3 120.672 2.32843 120 1.5 120C0.671573 120 0 120.672 0 121.5C0 122.328 0.671573 123 1.5 123Z" fill="#999999"/>
<path d="M25.5 147C26.3284 147 27 146.328 27 145.5C27 144.672 26.3284 144 25.5 144C24.6716 144 24 144.672 24 145.5C24 146.328 24.6716 147 25.5 147Z" fill="#999999"/>
<path d="M49.5 147C50.3284 147 51 146.328 51 145.5C51 144.672 50.3284 144 49.5 144C48.6716 144 48 144.672 48 145.5C48 146.328 48.6716 147 49.5 147Z" fill="#999999"/>
<path d="M73.5 147C74.3284 147 75 146.328 75 145.5C75 144.672 74.3284 144 73.5 144C72.6716 144 72 144.672 72 145.5C72 146.328 72.6716 147 73.5 147Z" fill="#999999"/>
<path d="M97.5 147C98.3284 147 99 146.328 99 145.5C99 144.672 98.3284 144 97.5 144C96.6716 144 96 144.672 96 145.5C96 146.328 96.6716 147 97.5 147Z" fill="#999999"/>
<path d="M121.5 147C122.328 147 123 146.328 123 145.5C123 144.672 122.328 144 121.5 144C120.672 144 120 144.672 120 145.5C120 146.328 120.672 147 121.5 147Z" fill="#999999"/>
<path d="M145.5 147C146.328 147 147 146.328 147 145.5C147 144.672 146.328 144 145.5 144C144.672 144 144 144.672 144 145.5C144 146.328 144.672 147 145.5 147Z" fill="#999999"/>
<path d="M169.5 147C170.328 147 171 146.328 171 145.5C171 144.672 170.328 144 169.5 144C168.672 144 168 144.672 168 145.5C168 146.328 168.672 147 169.5 147Z" fill="#999999"/>
<path d="M193.5 147C194.328 147 195 146.328 195 145.5C195 144.672 194.328 144 193.5 144C192.672 144 192 144.672 192 145.5C192 146.328 192.672 147 193.5 147Z" fill="#999999"/>
<path d="M217.5 147C218.328 147 219 146.328 219 145.5C219 144.672 218.328 144 217.5 144C216.672 144 216 144.672 216 145.5C216 146.328 216.672 147 217.5 147Z" fill="#999999"/>
<path d="M1.5 147C2.32843 147 3 146.328 3 145.5C3 144.672 2.32843 144 1.5 144C0.671573 144 0 144.672 0 145.5C0 146.328 0.671573 147 1.5 147Z" fill="#999999"/>
<path d="M25.5 171C26.3284 171 27 170.328 27 169.5C27 168.672 26.3284 168 25.5 168C24.6716 168 24 168.672 24 169.5C24 170.328 24.6716 171 25.5 171Z" fill="#999999"/>
<path d="M49.5 171C50.3284 171 51 170.328 51 169.5C51 168.672 50.3284 168 49.5 168C48.6716 168 48 168.672 48 169.5C48 170.328 48.6716 171 49.5 171Z" fill="#999999"/>
<path d="M73.5 171C74.3284 171 75 170.328 75 169.5C75 168.672 74.3284 168 73.5 168C72.6716 168 72 168.672 72 169.5C72 170.328 72.6716 171 73.5 171Z" fill="#999999"/>
<path d="M97.5 171C98.3284 171 99 170.328 99 169.5C99 168.672 98.3284 168 97.5 168C96.6716 168 96 168.672 96 169.5C96 170.328 96.6716 171 97.5 171Z" fill="#999999"/>
<path d="M121.5 171C122.328 171 123 170.328 123 169.5C123 168.672 122.328 168 121.5 168C120.672 168 120 168.672 120 169.5C120 170.328 120.672 171 121.5 171Z" fill="#999999"/>
<path d="M145.5 171C146.328 171 147 170.328 147 169.5C147 168.672 146.328 168 145.5 168C144.672 168 144 168.672 144 169.5C144 170.328 144.672 171 145.5 171Z" fill="#999999"/>
<path d="M169.5 171C170.328 171 171 170.328 171 169.5C171 168.672 170.328 168 169.5 168C168.672 168 168 168.672 168 169.5C168 170.328 168.672 171 169.5 171Z" fill="#999999"/>
<path d="M193.5 171C194.328 171 195 170.328 195 169.5C195 168.672 194.328 168 193.5 168C192.672 168 192 168.672 192 169.5C192 170.328 192.672 171 193.5 171Z" fill="#999999"/>
<path d="M217.5 171C218.328 171 219 170.328 219 169.5C219 168.672 218.328 168 217.5 168C216.672 168 216 168.672 216 169.5C216 170.328 216.672 171 217.5 171Z" fill="#999999"/>
<path d="M1.5 171C2.32843 171 3 170.328 3 169.5C3 168.672 2.32843 168 1.5 168C0.671573 168 0 168.672 0 169.5C0 170.328 0.671573 171 1.5 171Z" fill="#999999"/>
<path d="M25.5 195C26.3284 195 27 194.328 27 193.5C27 192.672 26.3284 192 25.5 192C24.6716 192 24 192.672 24 193.5C24 194.328 24.6716 195 25.5 195Z" fill="#999999"/>
<path d="M49.5 195C50.3284 195 51 194.328 51 193.5C51 192.672 50.3284 192 49.5 192C48.6716 192 48 192.672 48 193.5C48 194.328 48.6716 195 49.5 195Z" fill="#999999"/>
<path d="M73.5 195C74.3284 195 75 194.328 75 193.5C75 192.672 74.3284 192 73.5 192C72.6716 192 72 192.672 72 193.5C72 194.328 72.6716 195 73.5 195Z" fill="#999999"/>
<path d="M97.5 195C98.3284 195 99 194.328 99 193.5C99 192.672 98.3284 192 97.5 192C96.6716 192 96 192.672 96 193.5C96 194.328 96.6716 195 97.5 195Z" fill="#999999"/>
<path d="M121.5 195C122.328 195 123 194.328 123 193.5C123 192.672 122.328 192 121.5 192C120.672 192 120 192.672 120 193.5C120 194.328 120.672 195 121.5 195Z" fill="#999999"/>
<path d="M145.5 195C146.328 195 147 194.328 147 193.5C147 192.672 146.328 192 145.5 192C144.672 192 144 192.672 144 193.5C144 194.328 144.672 195 145.5 195Z" fill="#999999"/>
<path d="M169.5 195C170.328 195 171 194.328 171 193.5C171 192.672 170.328 192 169.5 192C168.672 192 168 192.672 168 193.5C168 194.328 168.672 195 169.5 195Z" fill="#999999"/>
<path d="M193.5 195C194.328 195 195 194.328 195 193.5C195 192.672 194.328 192 193.5 192C192.672 192 192 192.672 192 193.5C192 194.328 192.672 195 193.5 195Z" fill="#999999"/>
<path d="M217.5 195C218.328 195 219 194.328 219 193.5C219 192.672 218.328 192 217.5 192C216.672 192 216 192.672 216 193.5C216 194.328 216.672 195 217.5 195Z" fill="#999999"/>
<path d="M1.5 195C2.32843 195 3 194.328 3 193.5C3 192.672 2.32843 192 1.5 192C0.671573 192 0 192.672 0 193.5C0 194.328 0.671573 195 1.5 195Z" fill="#999999"/>
<path d="M25.5 219C26.3284 219 27 218.328 27 217.5C27 216.672 26.3284 216 25.5 216C24.6716 216 24 216.672 24 217.5C24 218.328 24.6716 219 25.5 219Z" fill="#999999"/>
<path d="M49.5 219C50.3284 219 51 218.328 51 217.5C51 216.672 50.3284 216 49.5 216C48.6716 216 48 216.672 48 217.5C48 218.328 48.6716 219 49.5 219Z" fill="#999999"/>
<path d="M73.5 219C74.3284 219 75 218.328 75 217.5C75 216.672 74.3284 216 73.5 216C72.6716 216 72 216.672 72 217.5C72 218.328 72.6716 219 73.5 219Z" fill="#999999"/>
<path d="M97.5 219C98.3284 219 99 218.328 99 217.5C99 216.672 98.3284 216 97.5 216C96.6716 216 96 216.672 96 217.5C96 218.328 96.6716 219 97.5 219Z" fill="#999999"/>
<path d="M121.5 219C122.328 219 123 218.328 123 217.5C123 216.672 122.328 216 121.5 216C120.672 216 120 216.672 120 217.5C120 218.328 120.672 219 121.5 219Z" fill="#999999"/>
<path d="M145.5 219C146.328 219 147 218.328 147 217.5C147 216.672 146.328 216 145.5 216C144.672 216 144 216.672 144 217.5C144 218.328 144.672 219 145.5 219Z" fill="#999999"/>
<path d="M169.5 219C170.328 219 171 218.328 171 217.5C171 216.672 170.328 216 169.5 216C168.672 216 168 216.672 168 217.5C168 218.328 168.672 219 169.5 219Z" fill="#999999"/>
<path d="M193.5 219C194.328 219 195 218.328 195 217.5C195 216.672 194.328 216 193.5 216C192.672 216 192 216.672 192 217.5C192 218.328 192.672 219 193.5 219Z" fill="#999999"/>
<path d="M217.5 219C218.328 219 219 218.328 219 217.5C219 216.672 218.328 216 217.5 216C216.672 216 216 216.672 216 217.5C216 218.328 216.672 219 217.5 219Z" fill="#999999"/>
<path d="M1.5 219C2.32843 219 3 218.328 3 217.5C3 216.672 2.32843 216 1.5 216C0.671573 216 0 216.672 0 217.5C0 218.328 0.671573 219 1.5 219Z" fill="#999999"/>
<path d="M25.5 243C26.3284 243 27 242.328 27 241.5C27 240.672 26.3284 240 25.5 240C24.6716 240 24 240.672 24 241.5C24 242.328 24.6716 243 25.5 243Z" fill="#999999"/>
<path d="M49.5 243C50.3284 243 51 242.328 51 241.5C51 240.672 50.3284 240 49.5 240C48.6716 240 48 240.672 48 241.5C48 242.328 48.6716 243 49.5 243Z" fill="#999999"/>
<path d="M73.5 243C74.3284 243 75 242.328 75 241.5C75 240.672 74.3284 240 73.5 240C72.6716 240 72 240.672 72 241.5C72 242.328 72.6716 243 73.5 243Z" fill="#999999"/>
<path d="M97.5 243C98.3284 243 99 242.328 99 241.5C99 240.672 98.3284 240 97.5 240C96.6716 240 96 240.672 96 241.5C96 242.328 96.6716 243 97.5 243Z" fill="#999999"/>
<path d="M121.5 243C122.328 243 123 242.328 123 241.5C123 240.672 122.328 240 121.5 240C120.672 240 120 240.672 120 241.5C120 242.328 120.672 243 121.5 243Z" fill="#999999"/>
<path d="M145.5 243C146.328 243 147 242.328 147 241.5C147 240.672 146.328 240 145.5 240C144.672 240 144 240.672 144 241.5C144 242.328 144.672 243 145.5 243Z" fill="#999999"/>
<path d="M169.5 243C170.328 243 171 242.328 171 241.5C171 240.672 170.328 240 169.5 240C168.672 240 168 240.672 168 241.5C168 242.328 168.672 243 169.5 243Z" fill="#999999"/>
<path d="M193.5 243C194.328 243 195 242.328 195 241.5C195 240.672 194.328 240 193.5 240C192.672 240 192 240.672 192 241.5C192 242.328 192.672 243 193.5 243Z" fill="#999999"/>
<path d="M217.5 243C218.328 243 219 242.328 219 241.5C219 240.672 218.328 240 217.5 240C216.672 240 216 240.672 216 241.5C216 242.328 216.672 243 217.5 243Z" fill="#999999"/>
<path d="M1.5 243C2.32843 243 3 242.328 3 241.5C3 240.672 2.32843 240 1.5 240C0.671573 240 0 240.672 0 241.5C0 242.328 0.671573 243 1.5 243Z" fill="#999999"/>
<path d="M25.5 267C26.3284 267 27 266.328 27 265.5C27 264.672 26.3284 264 25.5 264C24.6716 264 24 264.672 24 265.5C24 266.328 24.6716 267 25.5 267Z" fill="#999999"/>
<path d="M49.5 267C50.3284 267 51 266.328 51 265.5C51 264.672 50.3284 264 49.5 264C48.6716 264 48 264.672 48 265.5C48 266.328 48.6716 267 49.5 267Z" fill="#999999"/>
<path d="M73.5 267C74.3284 267 75 266.328 75 265.5C75 264.672 74.3284 264 73.5 264C72.6716 264 72 264.672 72 265.5C72 266.328 72.6716 267 73.5 267Z" fill="#999999"/>
<path d="M97.5 267C98.3284 267 99 266.328 99 265.5C99 264.672 98.3284 264 97.5 264C96.6716 264 96 264.672 96 265.5C96 266.328 96.6716 267 97.5 267Z" fill="#999999"/>
<path d="M121.5 267C122.328 267 123 266.328 123 265.5C123 264.672 122.328 264 121.5 264C120.672 264 120 264.672 120 265.5C120 266.328 120.672 267 121.5 267Z" fill="#999999"/>
<path d="M145.5 267C146.328 267 147 266.328 147 265.5C147 264.672 146.328 264 145.5 264C144.672 264 144 264.672 144 265.5C144 266.328 144.672 267 145.5 267Z" fill="#999999"/>
<path d="M169.5 267C170.328 267 171 266.328 171 265.5C171 264.672 170.328 264 169.5 264C168.672 264 168 264.672 168 265.5C168 266.328 168.672 267 169.5 267Z" fill="#999999"/>
<path d="M193.5 267C194.328 267 195 266.328 195 265.5C195 264.672 194.328 264 193.5 264C192.672 264 192 264.672 192 265.5C192 266.328 192.672 267 193.5 267Z" fill="#999999"/>
<path d="M217.5 267C218.328 267 219 266.328 219 265.5C219 264.672 218.328 264 217.5 264C216.672 264 216 264.672 216 265.5C216 266.328 216.672 267 217.5 267Z" fill="#999999"/>
<path d="M1.5 267C2.32843 267 3 266.328 3 265.5C3 264.672 2.32843 264 1.5 264C0.671573 264 0 264.672 0 265.5C0 266.328 0.671573 267 1.5 267Z" fill="#999999"/>
<path d="M25.5 291C26.3284 291 27 290.328 27 289.5C27 288.672 26.3284 288 25.5 288C24.6716 288 24 288.672 24 289.5C24 290.328 24.6716 291 25.5 291Z" fill="#999999"/>
<path d="M49.5 291C50.3284 291 51 290.328 51 289.5C51 288.672 50.3284 288 49.5 288C48.6716 288 48 288.672 48 289.5C48 290.328 48.6716 291 49.5 291Z" fill="#999999"/>
<path d="M73.5 291C74.3284 291 75 290.328 75 289.5C75 288.672 74.3284 288 73.5 288C72.6716 288 72 288.672 72 289.5C72 290.328 72.6716 291 73.5 291Z" fill="#999999"/>
<path d="M97.5 291C98.3284 291 99 290.328 99 289.5C99 288.672 98.3284 288 97.5 288C96.6716 288 96 288.672 96 289.5C96 290.328 96.6716 291 97.5 291Z" fill="#999999"/>
<path d="M121.5 291C122.328 291 123 290.328 123 289.5C123 288.672 122.328 288 121.5 288C120.672 288 120 288.672 120 289.5C120 290.328 120.672 291 121.5 291Z" fill="#999999"/>
<path d="M145.5 291C146.328 291 147 290.328 147 289.5C147 288.672 146.328 288 145.5 288C144.672 288 144 288.672 144 289.5C144 290.328 144.672 291 145.5 291Z" fill="#999999"/>
<path d="M169.5 291C170.328 291 171 290.328 171 289.5C171 288.672 170.328 288 169.5 288C168.672 288 168 288.672 168 289.5C168 290.328 168.672 291 169.5 291Z" fill="#999999"/>
<path d="M193.5 291C194.328 291 195 290.328 195 289.5C195 288.672 194.328 288 193.5 288C192.672 288 192 288.672 192 289.5C192 290.328 192.672 291 193.5 291Z" fill="#999999"/>
<path d="M217.5 291C218.328 291 219 290.328 219 289.5C219 288.672 218.328 288 217.5 288C216.672 288 216 288.672 216 289.5C216 290.328 216.672 291 217.5 291Z" fill="#999999"/>
<path d="M1.5 291C2.32843 291 3 290.328 3 289.5C3 288.672 2.32843 288 1.5 288C0.671573 288 0 288.672 0 289.5C0 290.328 0.671573 291 1.5 291Z" fill="#999999"/>
<path d="M25.5 315C26.3284 315 27 314.328 27 313.5C27 312.672 26.3284 312 25.5 312C24.6716 312 24 312.672 24 313.5C24 314.328 24.6716 315 25.5 315Z" fill="#999999"/>
<path d="M49.5 315C50.3284 315 51 314.328 51 313.5C51 312.672 50.3284 312 49.5 312C48.6716 312 48 312.672 48 313.5C48 314.328 48.6716 315 49.5 315Z" fill="#999999"/>
<path d="M73.5 315C74.3284 315 75 314.328 75 313.5C75 312.672 74.3284 312 73.5 312C72.6716 312 72 312.672 72 313.5C72 314.328 72.6716 315 73.5 315Z" fill="#999999"/>
<path d="M97.5 315C98.3284 315 99 314.328 99 313.5C99 312.672 98.3284 312 97.5 312C96.6716 312 96 312.672 96 313.5C96 314.328 96.6716 315 97.5 315Z" fill="#999999"/>
<path d="M121.5 315C122.328 315 123 314.328 123 313.5C123 312.672 122.328 312 121.5 312C120.672 312 120 312.672 120 313.5C120 314.328 120.672 315 121.5 315Z" fill="#999999"/>
<path d="M145.5 315C146.328 315 147 314.328 147 313.5C147 312.672 146.328 312 145.5 312C144.672 312 144 312.672 144 313.5C144 314.328 144.672 315 145.5 315Z" fill="#999999"/>
<path d="M169.5 315C170.328 315 171 314.328 171 313.5C171 312.672 170.328 312 169.5 312C168.672 312 168 312.672 168 313.5C168 314.328 168.672 315 169.5 315Z" fill="#999999"/>
<path d="M193.5 315C194.328 315 195 314.328 195 313.5C195 312.672 194.328 312 193.5 312C192.672 312 192 312.672 192 313.5C192 314.328 192.672 315 193.5 315Z" fill="#999999"/>
<path d="M217.5 315C218.328 315 219 314.328 219 313.5C219 312.672 218.328 312 217.5 312C216.672 312 216 312.672 216 313.5C216 314.328 216.672 315 217.5 315Z" fill="#999999"/>
<path d="M1.5 315C2.32843 315 3 314.328 3 313.5C3 312.672 2.32843 312 1.5 312C0.671573 312 0 312.672 0 313.5C0 314.328 0.671573 315 1.5 315Z" fill="#999999"/>
</svg>
